<svg xmlns="http://www.w3.org/2000/svg" fill-rule="evenodd" stroke-linejoin="round" stroke-miterlimit="2" viewBox="0 0 8323 3334" xmlns:v="https://vecta.io/nano"><g fill="#fff"><g fill-rule="nonzero"><path d="M3632.53 2223.895h160.032c40.008 0 73.765-3.751 102.521-12.503 27.506-8.752 50.01-20.004 66.263-33.757s28.756-30.006 36.257-48.76 11.252-38.758 11.252-60.012-3.751-41.258-11.252-60.012-20.004-35.007-36.257-48.76-38.758-25.005-66.263-33.757c-28.756-7.502-62.513-11.252-102.521-11.252H3632.53v308.812zm0 493.849h-90.018v-885.177h272.555c90.018 0 161.282 20.004 213.793 58.762 51.26 38.758 77.516 98.77 77.516 177.536 0 61.262-18.754 113.773-57.512 155.031-38.758 42.509-95.019 67.514-168.784 73.765l255.051 420.084h-110.022l-242.549-411.332h-150.03v411.332z"/><use href="#B"/><path d="M5258.984 2271.405c-12.503-23.755-28.756-43.759-50.01-57.512s-46.259-21.254-76.265-21.254c-13.753 0-28.756 1.25-42.509 5.001-15.003 3.751-28.756 8.752-40.008 15.003-11.252 7.502-21.254 16.253-27.506 27.506-7.502 11.252-11.252 23.755-11.252 40.008 0 27.506 10.002 47.51 28.756 60.012s47.51 23.755 86.267 32.507l83.767 20.004c41.258 8.752 75.015 27.506 102.521 55.011 26.255 28.756 40.008 63.763 40.008 105.021 0 31.256-6.251 58.762-18.754 81.266-13.753 23.755-30.006 42.509-51.26 56.261-21.254 15.003-46.259 26.255-73.765 32.507s-55.011 10.002-83.767 10.002c-45.009 0-87.518-8.752-125.025-26.255-38.758-16.253-72.515-46.259-100.02-87.518l71.264-48.76c16.253 26.255 37.508 47.51 63.763 63.763 25.005 16.253 55.011 23.755 90.018 23.755 16.253 0 33.757-1.25 50.01-6.251 16.253-3.751 31.256-8.752 45.009-17.504 12.503-7.502 22.505-17.504 31.256-30.006 7.502-12.503 11.252-27.506 11.252-43.759 0-28.756-11.252-50.01-32.507-63.763-21.254-12.503-47.51-22.505-78.766-30.006l-80.016-18.754c-10.002-2.501-23.755-6.251-40.008-12.503-17.504-6.251-33.757-15.003-50.01-26.255s-31.256-27.506-42.509-46.259-17.504-41.258-17.504-68.764c0-30.006 6.251-56.261 18.754-78.766 11.252-22.505 27.506-41.258 48.76-55.011 20.004-13.753 42.509-25.005 68.764-32.507 26.255-6.251 52.511-10.002 80.016-10.002 41.258 0 78.766 7.502 113.773 23.755s62.513 42.509 81.266 81.266l-73.765 48.76z"/><use href="#B" x="1228.008"/><path d="M6509.203 2426.436c-21.254 0-46.259 1.25-77.516 2.501-31.256 2.501-61.262 7.502-90.018 15.003-28.756 8.752-53.761 21.254-73.765 37.508-21.254 16.253-31.256 40.008-31.256 68.764 0 18.754 3.751 35.007 12.503 48.76 7.502 13.753 17.504 25.005 31.256 33.757s28.756 15.003 45.009 18.754c16.253 5.001 32.507 6.251 48.76 6.251 30.006 0 56.261-5.001 78.766-15.003 21.254-10.002 40.008-23.755 55.011-41.258 15.003-16.253 26.255-36.257 33.757-60.012 6.251-22.505 10.002-46.259 10.002-72.515v-42.509h-42.509zm42.509-67.514v-15.003c0-101.27-50.01-151.28-150.03-151.28-68.764 0-127.526 22.505-178.786 68.764l-50.01-58.762c55.011-56.261 137.528-85.017 247.55-85.017 28.756 0 56.261 3.751 82.517 12.503s48.76 21.254 67.514 37.508c18.754 17.504 35.007 38.758 46.259 65.013s17.504 56.261 17.504 92.519v261.302c0 22.505 1.25 46.259 3.751 70.014a586.83 586.83 0 0 0 6.251 61.262h-80.016c-2.501-13.753-3.751-30.006-5.001-46.259s-2.501-32.507-2.501-48.76h-2.501c-23.755 38.758-52.511 67.514-85.017 83.767-33.757 17.504-73.765 26.255-121.274 26.255-26.255 0-51.26-3.751-75.015-10.002-23.755-7.502-45.009-18.754-63.763-33.757-18.754-13.753-35.007-32.507-45.009-53.761-11.252-21.254-17.504-45.009-17.504-73.765 0-47.51 12.503-85.017 37.508-112.523 23.755-26.255 55.011-46.259 92.519-60.012 36.257-13.753 76.265-21.254 118.774-25.005 41.258-3.751 80.016-5.001 115.023-5.001h41.258zm282.807-43.759c0-26.255 0-52.511-1.25-78.766l-3.751-103.771h81.266v108.772h2.501c6.251-16.253 13.753-31.256 25.005-46.259 11.252-13.753 23.755-27.506 40.008-38.758 15.003-11.252 32.507-21.254 53.761-28.756 20.004-6.251 42.509-10.002 68.764-10.002 23.755 0 43.759 2.501 61.262 7.502l-16.253 81.266c-11.252-3.751-26.255-6.251-47.51-6.251-31.256 0-58.762 6.251-81.266 17.504-22.505 12.503-41.258 27.506-56.261 46.259-15.003 20.004-26.255 40.008-32.507 61.262-7.502 21.254-11.252 42.509-11.252 62.513v330.066h-82.517v-402.581zm810.001-45.009c-13.753-21.254-33.757-40.008-58.762-55.011-26.255-15.003-55.011-22.505-87.518-22.505-33.757-1.25-65.013 5.001-91.268 16.253-27.506 11.252-51.26 27.506-70.014 48.76s-33.757 45.009-43.759 73.765-15.003 60.012-15.003 93.769 5.001 63.763 15.003 92.519c10.002 30.006 25.005 53.761 43.759 75.015s42.509 37.508 70.014 48.76c26.255 11.252 57.512 17.504 91.268 16.253 32.507 0 61.262-7.502 87.518-22.505 25.005-15.003 45.009-33.757 58.762-55.011l67.514 51.26c-28.756 33.757-62.513 58.762-98.77 75.015-36.257 17.504-75.015 25.005-115.023 26.255-47.51 1.25-90.018-6.251-128.776-22.505-38.758-15.003-71.264-36.257-97.52-63.763-27.506-27.506-48.76-60.012-62.513-98.77-13.753-37.508-21.254-78.766-21.254-122.525s7.502-85.017 21.254-123.775c13.753-37.508 35.007-70.014 62.513-97.52 26.255-27.506 58.762-48.76 97.52-65.013 38.758-15.003 81.266-22.505 128.776-21.254 40.008 1.25 78.766 10.002 115.023 25.005 36.257 16.253 70.014 42.509 98.77 76.265l-67.514 51.26zm176.254-497.599h82.517v453.841h2.501c8.752-16.253 21.254-30.006 35.007-43.759s30.006-25.005 47.51-35.007c17.504-8.752 36.257-16.253 56.261-22.505 18.754-5.001 38.758-7.502 57.512-7.502 75.015 0 130.026 20.004 166.283 58.762 36.257 40.008 53.761 96.269 53.761 170.034v371.324h-82.517v-323.815c0-65.013-11.252-115.023-33.757-150.03-22.505-33.757-63.763-51.26-125.025-51.26-3.751 0-16.253 1.25-35.007 5.001s-38.758 12.503-60.012 27.506-41.258 37.508-57.512 67.514-25.005 71.264-25.005 125.025v300.06h-82.517v-945.189zm-3339.589-488.98c0 28.444 5.418 52.824 18.963 75.851 12.19 24.381 27.089 43.343 47.407 59.597s43.343 28.444 69.078 37.925 52.824 13.545 81.268 13.545c37.925 0 70.433-9.481 98.877-27.089 28.444-16.254 54.179-40.634 77.205-69.078l92.104 70.433c-67.724 88.041-162.537 131.384-284.439 131.384-50.116 0-96.168-8.127-136.802-25.735-41.989-17.608-75.851-40.634-104.294-71.787-28.444-29.798-51.47-65.015-66.369-107.003-14.899-40.634-23.026-85.332-23.026-132.738s8.127-92.104 25.735-134.093c16.254-40.634 39.28-75.851 69.078-107.003 28.444-29.798 63.66-52.824 104.294-70.433s85.332-25.735 132.738-25.735c56.888 0 105.649 9.481 144.929 29.798s70.433 46.052 96.168 77.205c25.735 32.507 43.343 69.078 55.533 108.358 10.836 40.634 16.254 81.268 16.254 123.257v43.343h-514.7zm384.67-97.522c-1.354-27.089-5.418-51.47-12.19-74.496-8.127-23.026-20.317-41.989-35.216-59.597-14.899-16.254-33.862-29.798-56.888-39.28s-50.116-13.545-81.268-13.545c-29.798 0-56.888 5.418-81.268 16.254-25.735 12.19-46.052 27.089-63.66 44.698s-29.798 37.925-39.28 59.597c-10.836 23.026-14.899 44.698-14.899 66.369h384.67z"/><use href="#C"/><path d="M5808.58 1079.049c-14.899-17.608-32.507-33.862-52.824-46.052-21.672-12.19-47.407-17.608-78.559-17.608-28.444 0-54.179 5.418-74.496 17.608-21.672 12.19-32.507 31.153-32.507 54.179 0 18.963 6.772 33.862 18.963 46.052s25.735 21.672 43.343 28.444c16.254 6.772 33.862 12.19 52.824 16.254s35.216 6.772 48.761 9.481c25.735 6.772 51.47 13.545 74.496 23.026s41.989 20.317 59.597 35.216c16.254 14.899 29.798 32.507 39.28 52.824s13.545 46.052 13.545 75.851c0 36.571-8.127 66.369-23.026 92.104s-35.216 47.407-59.597 63.66-51.47 28.444-82.623 35.216-63.66 10.836-94.813 10.836c-52.824 0-100.231-8.127-139.511-24.381-40.634-16.254-77.205-46.052-108.358-89.395l92.104-75.851c20.317 20.317 41.989 37.925 66.369 52.824s54.179 23.026 89.395 23.026c14.899 0 31.153-1.354 47.407-5.418 14.899-2.709 29.798-8.127 41.989-14.899s21.672-14.899 29.798-25.735c6.772-9.481 10.836-21.672 10.836-35.216 0-17.608-5.418-32.507-16.254-44.698-12.19-12.19-25.735-21.672-40.634-28.444-16.254-6.772-32.507-12.19-50.116-16.254s-33.862-6.772-47.407-9.481c-25.735-6.772-51.47-13.545-74.496-21.672s-44.698-18.963-62.306-32.507-32.507-31.153-43.343-51.47-16.254-46.052-16.254-77.205c0-33.862 6.772-62.306 21.672-88.041 13.545-24.381 32.507-44.698 55.533-60.951s48.761-28.444 78.559-36.571c28.444-8.127 58.242-12.19 88.041-12.19 43.343 0 85.332 8.127 124.612 24.381s71.787 43.343 94.813 81.268l-94.813 71.787zm262.558-82.622c33.862-31.153 74.496-55.533 119.194-71.787 44.698-14.899 90.75-23.026 135.447-23.026 47.407 0 88.041 5.418 121.903 17.608s60.951 27.089 82.623 47.407 37.925 41.989 48.761 67.724c9.481 25.735 14.899 52.824 14.899 81.268v327.783c0 23.026 0 43.343 1.354 62.306l4.063 54.179h-108.358a1173.82 1173.82 0 0 1-4.063-97.522h-2.709c-27.089 41.989-59.597 70.433-96.168 88.041s-79.914 25.735-128.675 25.735c-29.798 0-58.242-4.063-85.332-12.19s-50.116-20.317-70.433-36.571-36.571-36.571-48.761-60.951c-12.19-23.026-17.608-51.47-17.608-82.623 0-41.989 9.481-75.851 28.444-104.294 17.608-28.444 43.343-51.47 75.851-69.078 31.153-17.608 69.078-29.798 112.421-37.925 41.989-6.772 88.041-10.836 136.802-10.836h89.395v-27.089c0-16.254-2.709-32.507-9.481-48.761s-16.254-31.153-28.444-44.698c-12.19-12.19-28.444-23.026-47.407-31.153-18.963-6.772-41.989-10.836-67.724-10.836-23.026 0-43.343 2.709-60.951 6.772s-33.862 9.481-48.761 16.254-27.089 14.899-39.28 24.381l-33.862 25.735-73.142-75.851zm344.036 254.641c-28.444 0-58.242 1.354-88.041 4.063-31.153 4.063-58.242 9.481-82.623 18.963-25.735 9.481-46.052 21.672-60.951 37.925-16.254 16.254-24.381 36.571-24.381 62.306 0 36.571 12.19 63.66 37.925 79.914 24.381 16.254 58.242 24.381 100.231 24.381 33.862 0 62.306-5.418 85.332-17.608 23.026-10.836 41.989-25.735 56.888-43.343s24.381-37.925 31.153-60.951c6.772-21.672 9.481-43.343 9.481-65.015v-40.634h-65.015zM6771.8 917.867h121.903v98.877h2.709c8.127-17.608 18.963-32.507 32.507-47.407 13.545-13.545 28.444-25.735 46.052-35.216 16.254-9.481 33.862-17.608 54.179-24.381 20.317-5.418 39.28-8.127 59.597-8.127s37.925 2.709 54.179 8.127l-5.418 131.384c-9.481-2.709-20.317-5.418-29.798-6.772s-20.317-2.709-29.798-2.709c-59.597 0-105.649 16.254-136.802 50.116s-47.407 85.332-47.407 155.764v322.365H6771.8v-642.02z"/><use href="#C" x="2130.66"/></g><path d="M3542.518 594.051h128.984v964.526h-128.984z"/><path d="M3542.518 1078.663h128.984v482.275h-128.984z"/><path d="M4129.893 1560.878l-458.425-475.095v-16.67l458.425-475.095h191.705l-458.425 483.43 458.425 483.43h-191.705M257.988 3333.966l1538.003-1538.003 1538.003 1538.003H257.988zm-257.988 0V1825.731L1825.758-.027h1508.235L0 3333.966z"/><path d="M0 1567.743V-.027h1567.771L0 1567.743"/></g><defs ><path id="B" d="M4709.027 2380.176c0-56.261-16.253-101.27-50.01-136.277-33.757-33.757-80.016-51.26-140.028-51.26-26.255 0-52.511 5.001-77.516 15.003-25.005 11.252-46.259 25.005-65.013 42.509s-35.007 37.508-45.009 60.012c-11.252 22.505-17.504 46.259-17.504 70.014h395.079zm-397.58 67.514c2.501 28.756 10.002 56.261 21.254 82.517s27.506 47.51 46.259 66.263 41.258 33.757 66.263 45.009 52.511 16.253 81.266 16.253c43.759 0 82.517-10.002 115.023-31.256 31.256-20.004 56.261-43.759 72.515-70.014l63.763 52.511c-35.007 43.759-73.765 76.265-115.023 95.019-42.509 18.754-87.518 28.756-136.277 28.756-43.759 0-83.767-7.502-120.024-23.755-37.508-15.003-70.014-36.257-96.269-63.763s-47.51-60.012-62.513-97.52c-16.253-37.508-23.755-78.766-23.755-122.525s7.502-85.017 22.505-122.525 36.257-70.014 62.513-97.52 57.512-48.76 93.769-65.013c36.257-15.003 75.015-22.505 116.273-22.505 43.759 0 83.767 7.502 118.774 23.755s65.013 36.257 88.768 62.513c22.505 26.255 41.258 57.512 53.761 92.519 12.503 36.257 18.754 73.765 18.754 113.773v37.508h-487.598z"/><path id="C" d="M5151.678 917.867h121.903v642.02h-121.903v-642.02zm-28.444-230.261c0-24.381 9.481-46.052 27.089-63.66s37.925-25.735 62.306-25.735 46.052 8.127 63.66 25.735 25.735 39.28 25.735 63.66-8.127 44.698-25.735 62.306c-17.608 18.963-39.28 27.089-63.66 27.089s-44.698-8.127-62.306-27.089c-17.608-17.608-27.089-37.925-27.089-62.306z"/></defs></svg>